<svg width="212" height="88" viewBox="0 0 212 88" fill="none" xmlns="http://www.w3.org/2000/svg">
<path d="M25.6963 60C21.0029 60 16.5018 58.1835 13.1831 54.9501C9.86442 51.7167 8 47.3313 8 42.7586C8 38.186 9.86442 33.8006 13.1831 30.5672C16.5018 27.3338 21.0029 25.5173 25.6963 25.5173C26.8048 20.4873 30.0475 16.0671 34.7111 13.2289C39.3748 10.3907 45.0773 9.36707 50.5642 10.3832C56.0511 11.3994 60.8729 14.372 63.969 18.6473C67.065 22.9225 68.1816 28.1502 67.0731 33.1801H70.8346C74.3263 33.1801 77.675 34.5929 80.144 37.1078C82.6129 39.6227 84 43.0335 84 46.5901C84 50.1466 82.6129 53.5575 80.144 56.0723C77.675 58.5872 74.3263 60 70.8346 60H25.6963Z" fill="#ECBC55" fill-opacity="0.95" stroke="#432C51" stroke-width="5" stroke-linecap="round" stroke-linejoin="round"/>
<path d="M22 68H72" stroke="#432C51" stroke-width="5" stroke-linecap="round" stroke-linejoin="round"/>
<path d="M38 32H38.08" stroke="#432C51" stroke-width="5" stroke-linecap="round" stroke-linejoin="round"/>
<path d="M52 32H52.08" stroke="#432C51" stroke-width="5" stroke-linecap="round" stroke-linejoin="round"/>
<path d="M34 42C35.4339 43.2664 37.1453 44.2725 39.0342 44.9594C40.923 45.6462 42.9512 46 45 46C47.0488 46 49.077 45.6462 50.9658 44.9594C52.8547 44.2725 54.5661 43.2664 56 42" stroke="#432C51" stroke-width="5" stroke-linecap="round" stroke-linejoin="round"/>
<path d="M108.792 32V39.392H101.064V32H97.44V50H101.064V42.584H108.792V50H112.416V32H108.792ZM120.459 37.76C117.939 37.76 116.403 38.408 115.083 39.848L117.171 41.84C118.035 40.808 119.067 40.4 120.123 40.4C121.323 40.4 122.499 40.952 122.499 42.344V43.376L120.795 43.112C116.931 42.512 114.939 44.336 114.939 46.568C114.939 48.824 116.547 50.24 118.827 50.24C120.267 50.24 121.611 49.736 122.787 48.824L122.955 50H125.907V42.368C125.907 39.176 123.603 37.76 120.459 37.76ZM118.587 46.376C118.587 45.56 119.211 44.72 121.539 45.176L122.499 45.368V46.592C121.851 47.168 121.059 47.672 120.051 47.672C119.187 47.672 118.587 47.168 118.587 46.376ZM135.45 37.76C134.106 37.76 133.002 38.24 132.162 39.056V38H128.706V56L132.162 56.024V48.944C133.002 49.76 134.106 50.24 135.45 50.24C138.714 50.24 141.018 47.504 141.018 44C141.018 40.496 138.714 37.76 135.45 37.76ZM134.754 47.168C133.578 47.168 132.57 46.4 132.162 45.248V42.752C132.57 41.6 133.578 40.808 134.754 40.808C136.434 40.808 137.562 42.224 137.562 44C137.562 45.776 136.434 47.168 134.754 47.168ZM149.911 37.76C148.567 37.76 147.463 38.24 146.623 39.056V38H143.167V56L146.623 56.024V48.944C147.463 49.76 148.567 50.24 149.911 50.24C153.175 50.24 155.479 47.504 155.479 44C155.479 40.496 153.175 37.76 149.911 37.76ZM149.215 47.168C148.039 47.168 147.031 46.4 146.623 45.248V42.752C147.031 41.6 148.039 40.808 149.215 40.808C150.895 40.808 152.023 42.224 152.023 44C152.023 45.776 150.895 47.168 149.215 47.168ZM169.34 38H165.86V44.936C165.86 46.184 164.756 47.168 163.412 47.168C162.14 47.168 161.156 46.184 161.156 44.936V38H157.652V45.368C157.652 48.08 159.74 50.24 162.404 50.24C163.748 50.24 164.948 49.688 165.86 48.776V50C165.86 52.136 164.564 53.168 162.908 53.168C161.3 53.168 160.076 52.712 159.044 51.968V55.304C160.124 55.784 161.348 56.048 162.86 56.048C166.82 56.048 169.364 53.648 169.364 50L169.34 38ZM185.575 32H178.135V50H181.759V42.584H185.575C188.575 42.584 190.903 40.328 190.903 37.352C190.903 34.4 188.575 32 185.575 32ZM185.239 39.632H181.759V35.144H185.239C186.559 35.144 187.615 36.056 187.615 37.376C187.615 38.744 186.559 39.632 185.239 39.632ZM201.04 50.24C202.552 50.24 203.992 49.808 205.216 49.064V45.032C204.112 46.232 202.648 46.808 201.04 46.808C197.656 46.808 195.688 44.24 195.688 41C195.688 37.76 197.656 35.216 201.04 35.216C202.624 35.216 204.04 35.744 205.216 36.968V32.936C203.992 32.168 202.552 31.76 201.04 31.76C195.808 31.76 192.256 35.888 192.256 41C192.256 46.112 195.808 50.24 201.04 50.24Z" fill="#432C51"/>
</svg>
