<svg width="90" height="90" viewBox="0 0 85 65" fill="none" xmlns="http://www.w3.org/2000/svg">
<path d="M26.2803 61.3637C21.4803 61.3637 16.8769 59.5059 13.4827 56.199C10.0886 52.8921 8.18182 48.4071 8.18182 43.7305C8.18182 39.0538 10.0886 34.5688 13.4827 31.2619C16.8769 27.955 21.4803 26.0973 26.2803 26.0973C27.414 20.953 30.7304 16.4322 35.5 13.5295C40.2696 10.6268 46.1018 9.57998 51.7134 10.6192C57.325 11.6585 62.2564 14.6987 65.4228 19.0711C68.5892 23.4435 69.7312 28.79 68.5975 33.9342H72.4445C76.0156 33.9342 79.4403 35.3792 81.9654 37.9512C84.4905 40.5232 85.9091 44.0116 85.9091 47.6489C85.9091 51.2863 84.4905 54.7747 81.9654 57.3467C79.4403 59.9187 76.0156 61.3637 72.4445 61.3637H26.2803Z" fill="#ECBC55" fill-opacity="0.95" stroke="#432C51" stroke-width="5" stroke-linecap="round" stroke-linejoin="round"/>
<path d="M22.5 69.5455H73.6364" stroke="#432C51" stroke-width="5" stroke-linecap="round" stroke-linejoin="round"/>
<path d="M38.8636 32.7273H38.9455" stroke="#432C51" stroke-width="5" stroke-linecap="round" stroke-linejoin="round"/>
<path d="M53.1818 32.7273H53.2636" stroke="#432C51" stroke-width="5" stroke-linecap="round" stroke-linejoin="round"/>
<path d="M34.7727 42.9545C36.2392 44.2497 37.9896 45.2787 39.9213 45.9812C41.8531 46.6836 43.9274 47.0454 46.0227 47.0454C48.1181 47.0454 50.1924 46.6836 52.1242 45.9812C54.0559 45.2787 55.8063 44.2497 57.2727 42.9545" stroke="#432C51" stroke-width="5" stroke-linecap="round" stroke-linejoin="round"/>
</svg>
