<svg width="108" height="44" viewBox="0 0 200 40" fill="none" xmlns="http://www.w3.org/2000/svg">
<path d="M12.8481 30C10.5015 30 8.25091 29.0918 6.59156 27.4751C4.93221 25.8584 4 23.6657 4 21.3793C4 19.093 4.93221 16.9003 6.59156 15.2836C8.25091 13.6669 10.5015 12.7586 12.8481 12.7586C13.4024 10.2437 15.0237 8.03353 17.3556 6.61443C19.6874 5.19534 22.5386 4.68353 25.2821 5.19161C28.0255 5.69969 30.4365 7.18602 31.9845 9.32365C33.5325 11.4613 34.0908 14.0751 33.5366 16.5901H35.4173C37.1632 16.5901 38.8375 17.2965 40.072 18.5539C41.3065 19.8113 42 21.5168 42 23.295C42 25.0733 41.3065 26.7787 40.072 28.0362C38.8375 29.2936 37.1632 30 35.4173 30H12.8481Z" fill="#ECBC55" fill-opacity="0.95" stroke="#432C51" stroke-width="2.75" stroke-linecap="round" stroke-linejoin="round"/>
<path d="M11 34L36 34" stroke="#432C51" stroke-width="2.75" stroke-linecap="round" stroke-linejoin="round"/>
<path d="M19 16H19.04" stroke="#432C51" stroke-width="3" stroke-linecap="round" stroke-linejoin="round"/>
<path d="M26 16H26.04" stroke="#432C51" stroke-width="3" stroke-linecap="round" stroke-linejoin="round"/>
<path d="M17 21C17.7169 21.6332 18.5727 22.1363 19.5171 22.4797C20.4615 22.8231 21.4756 23 22.5 23C23.5244 23 24.5385 22.8231 25.4829 22.4797C26.4273 22.1363 27.2831 21.6332 28 21" stroke="#432C51" stroke-width="2" stroke-linecap="round" stroke-linejoin="round"/>
<path d="M57.396 16V19.696H53.532V16H51.72V25H53.532V21.292H57.396V25H59.208V16H57.396ZM63.2297 18.88C61.9697 18.88 61.2017 19.204 60.5417 19.924L61.5857 20.92C62.0177 20.404 62.5337 20.2 63.0617 20.2C63.6617 20.2 64.2497 20.476 64.2497 21.172V21.688L63.3977 21.556C61.4657 21.256 60.4697 22.168 60.4697 23.284C60.4697 24.412 61.2737 25.12 62.4137 25.12C63.1337 25.12 63.8057 24.868 64.3937 24.412L64.4777 25H65.9537V21.184C65.9537 19.588 64.8017 18.88 63.2297 18.88ZM62.2937 23.188C62.2937 22.78 62.6057 22.36 63.7697 22.588L64.2497 22.684V23.296C63.9257 23.584 63.5297 23.836 63.0257 23.836C62.5937 23.836 62.2937 23.584 62.2937 23.188ZM70.7248 18.88C70.0528 18.88 69.5008 19.12 69.0808 19.528V19H67.3528V28L69.0808 28.012V24.472C69.5008 24.88 70.0528 25.12 70.7248 25.12C72.3568 25.12 73.5088 23.752 73.5088 22C73.5088 20.248 72.3568 18.88 70.7248 18.88ZM70.3768 23.584C69.7888 23.584 69.2848 23.2 69.0808 22.624V21.376C69.2848 20.8 69.7888 20.404 70.3768 20.404C71.2168 20.404 71.7808 21.112 71.7808 22C71.7808 22.888 71.2168 23.584 70.3768 23.584ZM77.9553 18.88C77.2833 18.88 76.7313 19.12 76.3113 19.528V19H74.5833V28L76.3113 28.012V24.472C76.7313 24.88 77.2833 25.12 77.9553 25.12C79.5873 25.12 80.7393 23.752 80.7393 22C80.7393 20.248 79.5873 18.88 77.9553 18.88ZM77.6073 23.584C77.0193 23.584 76.5153 23.2 76.3113 22.624V21.376C76.5153 20.8 77.0193 20.404 77.6073 20.404C78.4473 20.404 79.0113 21.112 79.0113 22C79.0113 22.888 78.4473 23.584 77.6073 23.584ZM87.6698 19H85.9298V22.468C85.9298 23.092 85.3778 23.584 84.7058 23.584C84.0698 23.584 83.5778 23.092 83.5778 22.468V19H81.8258V22.684C81.8258 24.04 82.8698 25.12 84.2018 25.12C84.8738 25.12 85.4738 24.844 85.9298 24.388V25C85.9298 26.068 85.2818 26.584 84.4538 26.584C83.6498 26.584 83.0378 26.356 82.5218 25.984V27.652C83.0618 27.892 83.6738 28.024 84.4298 28.024C86.4098 28.024 87.6818 26.824 87.6818 25L87.6698 19ZM95.7877 16H92.0677V25H93.8797V21.292H95.7877C97.2877 21.292 98.4517 20.164 98.4517 18.676C98.4517 17.2 97.2877 16 95.7877 16ZM95.6197 19.816H93.8797V17.572H95.6197C96.2797 17.572 96.8077 18.028 96.8077 18.688C96.8077 19.372 96.2797 19.816 95.6197 19.816ZM103.52 25.12C104.276 25.12 104.996 24.904 105.608 24.532V22.516C105.056 23.116 104.324 23.404 103.52 23.404C101.828 23.404 100.844 22.12 100.844 20.5C100.844 18.88 101.828 17.608 103.52 17.608C104.312 17.608 105.02 17.872 105.608 18.484V16.468C104.996 16.084 104.276 15.88 103.52 15.88C100.904 15.88 99.1279 17.944 99.1279 20.5C99.1279 23.056 100.904 25.12 103.52 25.12Z" fill="#432C51"/>
</svg>
